<svg width="128" height="128" viewBox="0 0 128 128" fill="none" xmlns="http://www.w3.org/2000/svg">
  <defs>
    <linearGradient id="bg" x1="16" y1="10" x2="112" y2="118" gradientUnits="userSpaceOnUse">
      <stop stop-color="#2D5ED4"/>
      <stop offset="0.55" stop-color="#2A95E6"/>
      <stop offset="1" stop-color="#43C0C4"/>
    </linearGradient>
    <linearGradient id="w" x1="39" y1="38" x2="66" y2="70" gradientUnits="userSpaceOnUse">
      <stop stop-color="#FFFFFF"/>
      <stop offset="1" stop-color="#DCE9FF"/>
    </linearGradient>
    <linearGradient id="c" x1="62" y1="62" x2="96" y2="94" gradientUnits="userSpaceOnUse">
      <stop stop-color="#4FC1EE"/>
      <stop offset="1" stop-color="#3B8CFF"/>
    </linearGradient>
  </defs>
  <rect width="128" height="128" rx="30" fill="url(#bg)"/>
  <path d="M3 72L56 25L125 10V128H3V72Z" fill="#1E3DA6" fill-opacity="0.28"/>
  <path d="M16 114C35 100 63 95 100 101C109 102 118 104 128 108V128H16V114Z" fill="#1B2F87" fill-opacity="0.34"/>

  <path d="M39 93V45L66 64" stroke="url(#w)" stroke-width="9" stroke-linecap="round" stroke-linejoin="round"/>
  <path d="M39 93L66 64L93 93V45" stroke="url(#c)" stroke-width="9" stroke-linecap="round" stroke-linejoin="round"/>

  <circle cx="39" cy="45" r="5.8" fill="url(#w)"/>
  <circle cx="39" cy="93" r="5.8" fill="url(#c)"/>
  <circle cx="66" cy="64" r="5.6" fill="#2B79DF"/>
  <circle cx="93" cy="45" r="5.8" fill="#63D0B2"/>
  <circle cx="93" cy="93" r="5.8" fill="#49B8E6"/>
</svg>
