<svg width="192" height="192" viewBox="0 0 192 192" fill="none" xmlns="http://www.w3.org/2000/svg">
  <defs>
    <linearGradient id="bg" x1="24" y1="14" x2="168" y2="178" gradientUnits="userSpaceOnUse">
      <stop stop-color="#2D5ED4"/>
      <stop offset="0.55" stop-color="#2A95E6"/>
      <stop offset="1" stop-color="#43C0C4"/>
    </linearGradient>
    <linearGradient id="w" x1="58" y1="56" x2="99" y2="103" gradientUnits="userSpaceOnUse">
      <stop stop-color="#FFFFFF"/>
      <stop offset="1" stop-color="#DCE9FF"/>
    </linearGradient>
    <linearGradient id="c" x1="93" y1="93" x2="144" y2="141" gradientUnits="userSpaceOnUse">
      <stop stop-color="#4FC1EE"/>
      <stop offset="1" stop-color="#3B8CFF"/>
    </linearGradient>
  </defs>
  <rect width="192" height="192" rx="44" fill="url(#bg)"/>
  <path d="M4 108L82 36L186 14V192H4V108Z" fill="#1E3DA6" fill-opacity="0.28"/>
  <path d="M22 170C50 151 91 143 146 151C161 153 176 156 192 162V192H22V170Z" fill="#1B2F87" fill-opacity="0.34"/>

  <path d="M58 140V67L98 96" stroke="url(#w)" stroke-width="13" stroke-linecap="round" stroke-linejoin="round"/>
  <path d="M58 140L98 96L139 140V67" stroke="url(#c)" stroke-width="13" stroke-linecap="round" stroke-linejoin="round"/>

  <circle cx="58" cy="67" r="8.8" fill="url(#w)"/>
  <circle cx="58" cy="140" r="8.8" fill="url(#c)"/>
  <circle cx="98" cy="96" r="8.5" fill="#2B79DF"/>
  <circle cx="139" cy="67" r="8.8" fill="#63D0B2"/>
  <circle cx="139" cy="140" r="8.8" fill="#49B8E6"/>
</svg>
